<?xml version="1.0" standalone="no"?>
<!DOCTYPE svg PUBLIC "-//W3C//DTD SVG 20010904//EN"
 "http://www.w3.org/TR/2001/REC-SVG-20010904/DTD/svg10.dtd">
<svg version="1.0" xmlns="http://www.w3.org/2000/svg"
 width="844.000000pt" height="178.000000pt" viewBox="0 0 844.000000 178.000000"
 preserveAspectRatio="xMidYMid meet">

<g transform="translate(0.000000,178.000000) scale(0.100000,-0.100000)"
fill="#000000" stroke="none">
<path d="M3985 1406 c-149 -70 -208 -237 -135 -383 49 -99 138 -152 251 -153
212 0 344 217 248 409 -33 65 -67 98 -139 130 -64 29 -160 28 -225 -3z m209
-16 c95 -36 166 -140 166 -245 0 -50 -28 -119 -66 -163 -99 -117 -289 -116
-389 0 -88 103 -84 247 9 346 73 79 175 101 280 62z"/>
<path d="M3926 1260 l-47 -71 108 -124 c59 -69 110 -125 113 -125 5 0 164 178
204 227 18 24 18 24 -28 94 l-46 69 -129 0 -128 0 -47 -70z m154 45 c0 -9 -45
-75 -50 -75 -6 0 -30 60 -30 73 0 4 18 7 40 7 22 0 40 -2 40 -5z m130 -7 c-1
-7 -7 -26 -13 -42 l-13 -30 -27 36 c-15 19 -27 38 -27 41 0 4 18 7 40 7 26 0
40 -5 40 -12z m-71 -48 l32 -40 -61 0 c-33 0 -60 2 -60 5 0 9 45 75 51 75 3 0
20 -18 38 -40z m120 6 c12 -18 21 -36 21 -40 0 -3 -18 -6 -40 -6 -22 0 -40 2
-40 5 0 6 33 75 36 75 1 0 12 -15 23 -34z m-264 -6 c21 -40 20 -40 -25 -40
-46 0 -46 1 -23 41 22 36 29 36 48 -1z m39 -112 c37 -110 46 -142 38 -133 -5
6 -41 46 -80 91 -40 44 -72 84 -72 87 0 4 22 7 48 7 l48 0 18 -52z m107 -30
c-15 -46 -30 -90 -33 -98 -4 -13 -33 69 -54 153 l-6 27 60 0 61 0 -28 -82z
m139 76 c0 -4 -107 -130 -152 -179 -5 -5 5 28 22 75 17 47 33 91 35 98 4 12
95 18 95 6z"/>
<path d="M2040 1150 l0 -210 60 0 60 0 0 85 0 85 60 0 60 0 0 40 0 40 -60 0
-60 0 0 40 0 40 80 0 80 0 0 45 0 45 -140 0 -140 0 0 -210z"/>
<path d="M2491 1338 c-44 -117 -141 -386 -141 -391 0 -4 27 -7 60 -7 59 0 60
0 68 33 l8 32 79 0 79 0 10 -32 c9 -32 10 -33 68 -33 52 0 59 2 54 18 -3 9
-37 103 -75 207 l-69 190 -66 3 c-61 3 -67 1 -75 -20z m95 -160 c9 -29 19 -59
22 -65 3 -9 -9 -13 -43 -13 -34 0 -46 4 -43 13 3 6 13 36 22 65 10 28 19 52
21 52 2 0 11 -24 21 -52z"/>
<path d="M2800 1352 c0 -8 116 -345 135 -394 6 -15 20 -18 79 -18 l71 0 68
198 c37 108 67 203 67 210 0 8 -18 12 -55 12 l-54 0 -47 -145 c-25 -80 -49
-145 -52 -145 -4 0 -27 64 -52 143 l-45 142 -58 3 c-31 2 -57 -1 -57 -6z"/>
<path d="M3497 1353 c-4 -3 -7 -98 -7 -210 l0 -203 125 0 125 0 0 45 0 45 -65
0 -65 0 0 165 0 165 -53 0 c-30 0 -57 -3 -60 -7z"/>
<path d="M4460 1353 c0 -5 32 -69 70 -144 66 -129 70 -141 70 -203 l0 -66 55
0 55 0 0 63 c0 58 5 72 75 207 41 80 75 146 75 148 0 1 -28 2 -63 2 l-63 0
-33 -75 c-18 -41 -37 -75 -41 -75 -4 0 -24 34 -43 75 l-36 75 -61 0 c-33 0
-60 -3 -60 -7z"/>
<path d="M5026 1351 c-3 -5 -35 -87 -70 -182 -35 -96 -69 -187 -75 -202 l-11
-28 62 3 c61 3 63 4 72 36 l9 32 78 0 77 0 12 -35 c11 -35 12 -35 71 -35 l59
0 -19 48 c-10 26 -44 120 -76 210 l-58 162 -63 0 c-35 0 -65 -4 -68 -9z m71
-249 c-21 -2 -41 -1 -44 2 -5 4 23 100 35 120 3 6 15 -19 27 -55 l22 -64 -40
-3z"/>
<path d="M5350 1150 l0 -210 120 0 120 0 0 45 0 45 -65 0 -65 0 0 165 0 165
-55 0 -55 0 0 -210z"/>
<path d="M5620 1315 l0 -45 55 0 55 0 0 -165 0 -165 55 0 55 0 0 165 0 165 55
0 55 0 0 45 0 45 -165 0 -165 0 0 -45z"/>
<path d="M5980 1350 c0 -5 32 -69 70 -143 66 -127 70 -137 70 -200 l0 -67 55
0 55 0 0 66 c0 63 4 73 76 210 l75 144 -65 0 -65 0 -22 -47 c-11 -27 -28 -64
-37 -83 l-15 -35 -39 83 -39 82 -59 0 c-33 0 -60 -4 -60 -10z"/>
<path d="M520 460 l0 -100 63 0 c36 0 68 5 75 12 18 18 15 66 -5 76 -15 9 -15
11 1 27 41 42 -3 85 -86 85 l-48 0 0 -100z m107 44 c7 -19 -14 -35 -42 -32
-12 2 -21 12 -23 26 -3 19 1 22 28 22 19 0 33 -6 37 -16z m-2 -89 c0 -15 -8
-21 -32 -23 -30 -3 -33 -1 -33 23 0 24 3 26 33 23 24 -2 32 -8 32 -23z"/>
<path d="M720 460 l0 -100 55 0 c42 0 55 3 55 15 0 11 -11 15 -40 15 -36 0
-40 3 -40 25 0 22 4 25 35 25 24 0 35 5 35 15 0 10 -11 15 -35 15 -31 0 -35 3
-35 25 0 23 4 25 40 25 33 0 40 3 40 20 0 18 -7 20 -55 20 l-55 0 0 -100z"/>
<path d="M907 553 c-25 -6 -40 -49 -26 -74 5 -11 28 -27 50 -35 46 -19 56 -54
14 -54 -14 0 -25 5 -25 10 0 6 -12 10 -26 10 -25 0 -26 -1 -12 -22 29 -44 104
-41 126 4 17 35 8 52 -39 73 -50 23 -64 39 -45 54 14 12 46 5 46 -10 0 -5 9
-9 20 -9 27 0 25 25 -2 44 -22 16 -45 18 -81 9z"/>
<path d="M1050 540 c0 -15 7 -20 25 -20 25 0 25 -1 25 -80 0 -79 0 -80 25 -80
25 0 25 1 25 80 0 79 0 80 25 80 18 0 25 5 25 20 0 18 -7 20 -75 20 -68 0 -75
-2 -75 -20z"/>
<path d="M1300 460 c0 -93 1 -100 20 -100 16 0 20 7 20 35 0 22 5 35 13 35 7
0 21 -16 30 -35 12 -26 23 -35 42 -35 l24 0 -21 36 -21 35 22 20 c21 20 27 54
13 75 -14 21 -51 34 -96 34 l-46 0 0 -100z m104 43 c8 -20 -17 -43 -46 -43
-13 0 -18 8 -18 30 0 26 3 30 29 30 18 0 31 -6 35 -17z"/>
<path d="M1490 460 l0 -100 60 0 c46 0 60 3 60 14 0 10 -13 16 -37 18 -31 2
-39 7 -41 26 -3 19 1 22 32 22 47 0 50 27 4 32 -25 2 -34 8 -36 26 -3 20 1 22
37 22 34 0 41 3 41 20 0 18 -7 20 -60 20 l-60 0 0 -100z"/>
<path d="M1667 460 c25 -97 26 -100 54 -100 26 0 30 5 44 58 9 31 18 62 19 67
4 11 36 -91 36 -112 0 -8 12 -13 30 -13 31 0 31 -1 69 145 15 54 14 55 -12 55
-21 0 -24 -7 -36 -76 -16 -84 -23 -82 -42 13 -12 58 -15 63 -39 63 -25 0 -28
-5 -44 -75 -10 -41 -19 -75 -21 -75 -2 0 -11 34 -20 75 -15 67 -20 75 -40 75
l-23 0 25 -100z"/>
<path d="M2025 550 c-6 -9 -65 -179 -65 -187 0 -11 42 0 46 12 4 10 20 15 49
15 29 0 45 -5 49 -15 5 -15 46 -22 46 -7 0 4 -15 48 -33 97 -30 79 -37 90 -59
93 -15 2 -29 -2 -33 -8z m48 -85 l16 -45 -30 0 c-16 0 -29 3 -29 6 0 10 23 84
26 84 1 0 9 -20 17 -45z"/>
<path d="M2190 460 c0 -93 1 -100 20 -100 16 0 20 7 20 35 0 19 5 35 10 35 6
0 20 -16 31 -35 15 -24 28 -35 45 -35 l23 0 -21 36 -21 35 22 20 c12 11 21 32
21 49 0 37 -40 60 -105 60 l-45 0 0 -100z m104 45 c7 -18 -19 -45 -45 -45 -14
0 -19 7 -19 30 0 26 3 30 29 30 16 0 31 -6 35 -15z"/>
<path d="M2380 460 l0 -100 61 0 c54 0 64 3 90 29 33 33 38 75 14 120 -17 33
-59 51 -121 51 l-44 0 0 -100z m120 40 c40 -40 15 -101 -42 -103 -33 -2 -33
-2 -36 47 -2 27 -1 55 2 62 8 21 53 17 76 -6z"/>
<path d="M2660 461 c0 -94 1 -101 20 -101 16 0 20 7 20 35 0 33 2 35 35 35 61
0 95 58 61 105 -10 13 -30 20 -75 23 l-61 4 0 -101z m106 44 c9 -21 -15 -47
-40 -43 -15 2 -22 12 -24 31 -3 24 0 27 28 27 18 0 33 -6 36 -15z"/>
<path d="M2894 549 c-26 -13 -54 -60 -54 -92 0 -35 40 -89 73 -98 38 -10 92 7
111 36 9 13 16 43 16 65 0 76 -76 122 -146 89z m88 -46 c26 -23 24 -78 -4 -97
-31 -22 -54 -20 -78 6 -55 59 22 146 82 91z"/>
<path d="M3080 460 c0 -93 1 -100 20 -100 19 0 20 7 20 100 0 93 -1 100 -20
100 -19 0 -20 -7 -20 -100z"/>
<path d="M3170 460 c0 -93 1 -100 20 -100 18 0 20 7 20 60 0 33 3 60 8 60 4 0
24 -27 46 -60 29 -46 44 -60 62 -60 24 0 24 1 24 100 0 93 -1 100 -20 100 -18
0 -20 -7 -20 -58 0 -32 -3 -62 -7 -65 -3 -4 -26 22 -50 58 -29 43 -50 65 -63
65 -19 0 -20 -7 -20 -100z"/>
<path d="M3382 543 c2 -11 14 -19 31 -21 27 -3 27 -4 27 -83 0 -72 2 -79 20
-79 18 0 20 7 20 79 0 79 0 80 27 83 17 2 29 10 31 21 3 15 -6 17 -78 17 -72
0 -81 -2 -78 -17z"/>
<path d="M3592 544 c-14 -10 -22 -25 -22 -45 0 -25 7 -32 47 -52 25 -12 48
-28 51 -34 5 -19 -27 -28 -49 -15 -22 14 -49 16 -49 3 0 -17 31 -41 53 -42 66
-4 89 12 85 55 -3 26 -11 35 -50 54 -47 22 -61 45 -34 55 8 3 22 -1 33 -8 21
-17 53 -19 53 -5 0 20 -41 50 -68 50 -15 0 -38 -7 -50 -16z"/>
<path d="M3820 460 c0 -93 1 -100 20 -100 16 0 20 7 20 34 0 32 2 34 41 39 48
6 55 12 64 49 5 21 1 33 -19 52 -20 21 -35 26 -76 26 l-50 0 0 -100z m100 36
c0 -23 -16 -36 -46 -36 -9 0 -14 11 -14 30 0 27 3 30 30 30 25 0 30 -4 30 -24z"/>
<path d="M4000 460 l0 -100 25 0 c22 0 25 4 25 35 0 19 5 35 10 35 6 0 18 -16
27 -35 12 -25 23 -35 40 -35 28 0 28 1 4 40 -19 31 -19 31 5 55 30 31 30 50
-1 80 -20 21 -34 25 -80 25 l-55 0 0 -100z m108 36 c4 -20 -13 -36 -40 -36
-13 0 -18 8 -18 31 0 27 3 30 27 27 18 -2 29 -10 31 -22z"/>
<path d="M4241 546 c-87 -48 -53 -189 45 -189 53 0 83 17 100 58 38 92 -58
179 -145 131z m91 -43 c38 -34 12 -113 -37 -113 -50 0 -77 77 -39 114 20 21
53 20 76 -1z"/>
<path d="M4480 547 c-14 -7 -33 -28 -42 -47 -34 -69 10 -142 86 -142 44 0 72
16 91 52 23 45 19 50 -40 50 -30 0 -55 -4 -55 -10 0 -5 11 -10 24 -10 33 0 44
-20 21 -37 -26 -19 -52 -16 -75 7 -25 25 -26 72 -2 93 21 19 57 22 67 7 8 -13
55 -13 55 -1 0 17 -52 51 -79 51 -14 0 -37 -6 -51 -13z"/>
<path d="M4660 460 c0 -93 1 -100 20 -100 16 0 20 7 20 35 0 22 5 35 13 35 7
0 21 -16 30 -35 12 -26 23 -35 42 -35 l24 0 -21 36 -21 35 22 20 c12 11 21 32
21 49 0 37 -40 60 -105 60 l-45 0 0 -100z m108 34 c2 -15 -4 -23 -20 -28 -41
-11 -48 -7 -48 25 0 28 2 30 33 27 24 -2 33 -8 35 -24z"/>
<path d="M4879 460 l-36 -100 23 0 c15 0 24 6 24 15 0 11 12 15 50 15 38 0 50
-4 50 -15 0 -9 9 -15 24 -15 l23 0 -35 100 c-33 91 -38 100 -61 100 -24 0 -29
-9 -62 -100z m90 -27 c1 -8 -11 -13 -30 -13 -33 0 -33 3 -7 70 l10 25 13 -35
c8 -19 14 -41 14 -47z"/>
<path d="M5070 461 c0 -94 1 -101 20 -101 18 0 20 7 20 60 0 33 3 60 8 60 4 0
18 -27 30 -60 31 -79 52 -80 77 -5 11 30 23 55 27 55 4 0 8 -25 8 -55 0 -48 2
-55 20 -55 19 0 20 7 20 101 l0 100 -27 -3 c-23 -3 -30 -12 -51 -71 -14 -37
-29 -66 -34 -65 -5 2 -22 33 -37 68 -22 55 -31 65 -54 68 l-27 3 0 -100z"/>
<path d="M5410 460 c0 -93 1 -100 20 -100 17 0 20 7 20 39 0 37 2 40 32 43 46
4 49 28 4 28 -31 0 -36 3 -36 24 0 22 5 25 42 28 31 2 44 8 46 21 3 15 -5 17
-62 17 l-66 0 0 -100z"/>
<path d="M5599 531 c-32 -32 -38 -79 -18 -124 27 -59 116 -68 161 -18 87 97
-51 233 -143 142z m120 -42 c19 -34 8 -72 -25 -89 -38 -21 -78 3 -82 49 -7 68
74 98 107 40z"/>
<path d="M5810 461 c0 -94 1 -101 20 -101 16 0 20 7 20 35 0 22 5 35 13 35 7
0 21 -16 30 -35 12 -26 23 -35 42 -35 l24 0 -21 36 -21 35 22 20 c24 23 27 57
7 84 -10 13 -30 20 -75 23 l-61 4 0 -101z m104 43 c9 -22 -11 -44 -40 -44 -20
0 -24 5 -24 30 0 26 3 30 29 30 17 0 31 -6 35 -16z"/>
<path d="M6085 490 c19 -38 35 -83 35 -100 0 -23 4 -30 20 -30 15 0 20 7 20
25 0 14 16 57 35 95 19 38 35 72 35 75 0 3 -10 5 -22 5 -18 0 -28 -12 -44 -48
l-21 -47 -23 48 c-18 36 -29 47 -47 47 -23 0 -23 0 12 -70z"/>
<path d="M6314 551 c-48 -21 -68 -89 -43 -144 18 -40 72 -60 122 -46 101 28
86 183 -18 194 -22 3 -50 1 -61 -4z m90 -53 c9 -12 16 -33 16 -45 0 -28 -33
-63 -60 -63 -25 0 -60 38 -60 65 0 59 72 88 104 43z"/>
<path d="M6500 484 c0 -41 4 -84 10 -94 12 -23 59 -39 93 -33 47 9 62 37 66
124 l3 79 -26 0 c-26 0 -26 -1 -26 -73 0 -71 -10 -97 -36 -97 -30 0 -44 31
-44 101 0 62 -2 69 -20 69 -18 0 -20 -7 -20 -76z"/>
<path d="M6710 461 c0 -94 1 -101 20 -101 16 0 20 7 20 35 0 22 5 35 13 35 7
0 21 -16 31 -35 14 -25 26 -35 43 -35 l25 0 -22 36 -22 35 21 15 c26 18 29 75
5 95 -9 7 -42 15 -75 17 l-59 4 0 -101z m107 43 c7 -19 -21 -44 -49 -44 -13 0
-18 8 -18 30 0 27 3 30 30 30 19 0 33 -6 37 -16z"/>
<path d="M6998 549 c-10 -5 -23 -19 -29 -30 -14 -28 11 -65 51 -74 36 -8 60
-42 35 -51 -9 -4 -27 -1 -39 6 -13 6 -31 10 -41 8 -16 -3 -16 -4 1 -26 40 -49
139 -21 132 37 -2 20 -14 31 -50 49 -48 22 -61 45 -33 56 8 3 21 -1 29 -9 16
-17 42 -20 51 -6 8 13 -44 51 -69 51 -11 0 -29 -5 -38 -11z"/>
<path d="M7140 540 c0 -16 7 -20 30 -20 l30 0 0 -80 c0 -73 2 -80 20 -80 18 0
20 7 20 80 0 79 0 80 25 80 18 0 25 5 25 20 0 18 -7 20 -75 20 -68 0 -75 -2
-75 -20z"/>
<path d="M7368 543 c-73 -46 -54 -165 30 -186 39 -9 91 11 107 43 52 101 -43
201 -137 143z m96 -39 c24 -24 20 -80 -6 -98 -30 -21 -54 -20 -78 4 -24 24
-26 57 -4 88 18 26 65 30 88 6z"/>
<path d="M7560 461 c0 -94 1 -101 20 -101 16 0 20 7 20 35 0 25 5 35 15 35 9
0 23 -16 32 -35 12 -26 23 -35 41 -35 l24 0 -21 36 -22 37 21 14 c25 17 27 74
4 94 -9 7 -42 15 -75 17 l-59 4 0 -101z m108 32 c3 -17 -3 -24 -22 -29 -33 -8
-46 1 -46 32 0 22 4 25 33 22 24 -2 33 -8 35 -25z"/>
<path d="M7760 460 l0 -100 60 0 c47 0 60 3 60 15 0 11 -11 15 -40 15 -36 0
-40 3 -40 24 0 20 6 25 32 28 46 4 49 28 4 28 -31 0 -36 3 -36 24 0 21 5 25
37 28 27 2 39 8 41 21 3 15 -5 17 -57 17 l-61 0 0 -100z"/>
</g>
</svg>
